<svg width="70" height="42" viewBox="0 0 70 42" fill="none" xmlns="http://www.w3.org/2000/svg">
<path d="M0.85664 10.2856V1.69963H15.8146V41.1196H6.20264V10.2856H0.85664ZM20.0794 10.2856V1.69963H35.0374V41.1196H25.4254V10.2856H20.0794ZM46.7541 19.9516C43.3701 18.1516 41.6781 15.3256 41.6781 11.4736C41.6781 9.52963 42.1821 7.76563 43.1901 6.18163C44.1981 4.56163 45.7281 3.28363 47.7801 2.34763C49.8321 1.37563 52.3521 0.889625 55.3401 0.889625C58.3281 0.889625 60.8301 1.37563 62.8461 2.34763C64.8981 3.28363 66.4281 4.56163 67.4361 6.18163C68.4441 7.76563 68.9481 9.52963 68.9481 11.4736C68.9481 13.4176 68.4801 15.1096 67.5441 16.5496C66.6441 17.9896 65.4201 19.1236 63.8721 19.9516C65.8161 20.8876 67.3101 22.1836 68.3541 23.8396C69.3981 25.4596 69.9201 27.3676 69.9201 29.5636C69.9201 32.1196 69.2721 34.3336 67.9761 36.2056C66.6801 38.0416 64.9161 39.4456 62.6841 40.4176C60.4881 41.3896 58.0401 41.8756 55.3401 41.8756C52.6401 41.8756 50.1741 41.3896 47.9421 40.4176C45.7461 39.4456 44.0001 38.0416 42.7041 36.2056C41.4081 34.3336 40.7601 32.1196 40.7601 29.5636C40.7601 27.3316 41.2821 25.4056 42.3261 23.7856C43.3701 22.1296 44.8461 20.8516 46.7541 19.9516ZM59.9841 12.8776C59.9841 11.4016 59.5521 10.2676 58.6881 9.47563C57.8601 8.64763 56.7441 8.23363 55.3401 8.23363C53.9361 8.23363 52.8021 8.64763 51.9381 9.47563C51.1101 10.3036 50.6961 11.4556 50.6961 12.9316C50.6961 14.3356 51.1281 15.4516 51.9921 16.2796C52.8561 17.0716 53.9721 17.4676 55.3401 17.4676C56.7081 17.4676 57.8241 17.0536 58.6881 16.2256C59.5521 15.3976 59.9841 14.2816 59.9841 12.8776ZM55.3401 23.9476C53.6481 23.9476 52.2801 24.4156 51.2361 25.3516C50.1921 26.2516 49.6701 27.5116 49.6701 29.1316C49.6701 30.6436 50.1741 31.8856 51.1821 32.8576C52.2261 33.8296 53.6121 34.3156 55.3401 34.3156C57.0681 34.3156 58.4181 33.8296 59.3901 32.8576C60.3981 31.8856 60.9021 30.6436 60.9021 29.1316C60.9021 27.5476 60.3801 26.2876 59.3361 25.3516C58.3281 24.4156 56.9961 23.9476 55.3401 23.9476Z" fill="#6B2272"/>
</svg>
