<svg width="51" height="27" viewBox="0 0 51 27" fill="none" xmlns="http://www.w3.org/2000/svg">
<g clip-path="url(#clip0_501_10397)">
<path d="M0 1.40381H2.56084L7.65738 19.3777L14.8072 1.40381H15.3239L22.3914 19.3777L26.8751 4.00124L30.1151 1.40381L22.947 26.3469H22.4828L15.0815 7.47438L7.5362 26.3469H7.06976L0 1.40381Z" fill="#6B2272"/>
<path d="M23.5438 18.4266L25.6885 17.1691C27.1998 19.8831 30.4032 23.5117 32.3832 23.5117C33.2292 23.5117 34.0249 23.3197 34.7703 22.9332C35.5134 22.5468 36.0805 22.0324 36.4692 21.383C36.8579 20.736 37.0522 20.0477 37.0522 19.3229C37.0522 18.4975 36.7664 17.6858 36.1948 16.8924C35.406 15.7972 33.9632 14.4802 31.8688 12.9391C29.763 11.3866 28.4528 10.2639 27.9383 9.57113C27.0466 8.40961 26.5985 7.15205 26.5985 5.80075C26.5985 4.72839 26.8614 3.75207 27.3873 2.8695C27.9132 1.98692 28.654 1.29183 29.6098 0.784239C30.5655 0.276643 31.6036 0.0228449 32.7262 0.0228449C33.9175 0.0228449 34.9509 -0.0274574 36.1399 0.0228449C37.3289 0.0731471 36.8853 0.0228449 38.7236 0.0228449L38.184 2.43278C37.5118 2.43507 36.8944 2.49452 36.0645 2.47394C34.6743 2.43735 33.1858 2.47394 32.7033 2.47394C31.6836 2.47394 30.8239 2.87178 30.1768 3.47312C29.5297 4.07675 29.2073 4.81985 29.2073 5.70243C29.2073 6.23746 29.3217 6.75878 29.5503 7.2618C29.779 7.76482 30.1974 8.31129 30.8033 8.90348C31.1348 9.21673 32.2232 10.0376 34.0638 11.366C36.2497 12.9414 37.7496 14.343 38.5613 15.5708C39.373 16.7987 39.78 18.0333 39.78 19.2749C39.78 21.0629 39.0849 22.6154 37.6947 23.9324C36.3045 25.2517 34.6125 25.9102 32.621 25.9102C31.0868 25.9102 29.6966 25.5101 28.4505 24.7121C27.2021 23.9141 24.5932 20.3038 23.5392 18.4266H23.5438Z" fill="#6B2272"/>
<path d="M36.3182 2.49462V0.0229492H50.1559V2.49462H44.5244V25.2747H41.9498V2.49462H36.3182Z" fill="#6B2272"/>
</g>
<defs>
<clipPath id="clip0_501_10397">
<rect width="50.156" height="26.347" fill="white"/>
</clipPath>
</defs>
</svg>
